<?xml version="1.0" encoding="utf-8"?>
<!-- Generator: Adobe Illustrator 19.0.0, SVG Export Plug-In . SVG Version: 6.00 Build 0)  -->
<svg version="1.1" id="Layer_1" xmlns="http://www.w3.org/2000/svg" xmlns:xlink="http://www.w3.org/1999/xlink" x="0px" y="0px"
	 viewBox="0 0 500 500" style="enable-background:new 0 0 500 500;" xml:space="preserve">
<style type="text/css">
	.st0{fill-rule:evenodd;clip-rule:evenodd;fill:#F7E122;}
	.st1{fill:#0055A3;}
</style>
<g id="XMLID_1_">
	<rect id="XMLID_3_" x="67.5" y="196.1" class="st0" width="365" height="107.7"/>
	<path id="XMLID_6_" class="st1" d="M114.5,228.3c1.8-0.7,3.8-1,5.8-1c3.8,0,7.1,1.2,9.5,3.6c2.5,2.4,3.8,5.8,4.3,9.9
		c0.3,3,0,6.2-0.9,9.6c-0.7,3.4-1.9,6.4-3.6,8.9c-1.8,3.1-4.1,5.5-7.1,7.1c-2.4,1.5-5,2.2-8,2.5v-5.9c1-0.3,2.1-0.7,3-1.2
		c1.9-1.2,3.6-3,4.9-5.3c1.3-2.4,2.4-4.9,3.1-7.7c0.7-2.8,0.9-5.5,0.7-8c-0.3-2.7-1.2-4.7-2.7-6.4c-1.6-1.6-3.7-2.4-6.1-2.4
		c-1,0-2.1,0.1-3,0.4V228.3z M88.4,283l10.2-44.8c0.3-1.8,0.6-3.4,0.9-5.2c0.1-1.8,0.3-3.4,0.4-5.2h7.1l-0.6,6.1
		c2.2-2.2,4.4-4,6.7-5c0.4-0.3,1-0.4,1.5-0.6v4.1c-1,0.3-2.1,0.9-3.1,1.5c-1.9,1.3-3.6,3.3-4.7,5.6c-1.3,2.4-2.4,5.2-3.1,8.3
		c-0.7,3.3-0.9,5.8-0.7,7.8c0.1,2.4,1,4.1,2.5,5.6c1.5,1.3,3.4,2.1,5.8,2.1c1.2,0,2.4-0.1,3.4-0.4v5.9c-0.4,0-0.9,0-1.3,0
		c-2.8,0-5-0.6-7.1-1.6c-1.9-1-3.7-2.7-5.2-4.7L96.2,283H88.4z"/>
	<path id="XMLID_9_" class="st1" d="M304.4,234.2c-0.9,0-1.6,0.1-2.5,0.3v-5.8c0.4-0.1,0.7-0.3,1-0.4c2.1-1,4.4-1.5,7-1.5
		c3.8,0,7,1.2,9.2,3.4s3.6,5.5,3.8,9.8c0.7,8-0.7,14.8-4.6,20.3c-3.7,5.6-8.7,8.4-14.9,8.4c-0.4,0-1-0.1-1.5-0.1v-7.7
		c0.9-0.1,1.8-0.6,2.5-1.2c1.3-1,2.4-2.5,3.4-4.6c1-2.2,1.9-4.7,2.5-7.4c0.6-2.7,0.7-4.9,0.6-6.8c-0.1-2.2-0.9-3.8-1.9-4.9
		C307.8,234.8,306.3,234.2,304.4,234.2z M301.9,234.5c-2.4,0.7-4.4,2.7-6.1,5.5c-2.4,4-3.3,8.4-2.8,13.3c0.3,2.5,0.9,4.4,2.2,5.8
		c1.2,1.3,2.8,2.1,4.9,2.1c0.6,0,1.2-0.1,1.8-0.3v7.7c-2.2-0.1-4.1-0.7-5.8-1.6c-2.1-1-3.7-2.8-4.9-5l-4.7,21.2h-12.3l9.5-42.9
		c1.2-5.5,1.9-9.6,2.2-12.3H297l-0.3,4.9c1.8-1.6,3.4-3,5.2-4V234.5z"/>
	<path id="XMLID_13_" class="st1" d="M350.5,248.8c-0.3-0.1-0.6-0.1-0.9-0.1c-0.4,0-0.7,0-1.3,0c-1.9,0-3.7,0.1-5.2,0.6v-6.5
		c1.6-0.1,3.6-0.1,5.5-0.1c0.9,0,1.6,0,2.1,0c0.4,0,0.9,0,1.3,0c0.3-1.5,0.6-2.5,0.6-3.4c0.1-0.7,0.1-1.3,0.1-1.9
		c-0.1-1.2-0.6-2.1-1.5-2.7c-0.7-0.6-1.9-0.9-3.4-0.9c-1.8,0-3.1,0.4-4,1.2c-0.3,0.3-0.6,0.4-0.7,0.9v-8.3c1.5-0.3,3.1-0.3,4.7-0.3
		c5.2,0,9,0.7,11.8,2.5c2.7,1.8,4.1,4.3,4.4,7.7c0.1,1,0.1,2.1,0,3.3c-0.1,1-0.4,2.4-0.7,3.7l-3.1,13.6c-0.4,1.6-0.6,3.3-0.9,5
		c-0.1,1.8-0.1,3.4-0.1,5.2H348c0-0.9,0-1.8,0-2.8c0-1,0.1-1.9,0.1-3c-1.5,2.1-3.3,3.7-5,4.6v-6.2c1.2-0.6,2.4-1.5,3.6-2.8
		C348.6,255.6,349.9,252.5,350.5,248.8z M343.1,249.3c-1.6,0.4-3,1-4.1,1.9c-2.5,1.6-3.6,3.7-3.3,6.1c0,1.3,0.4,2.4,1.3,3.1
		c0.7,0.7,1.8,1,3.1,1c1,0,2.1-0.1,3-0.6v6.2l-0.3,0.1c-1.9,1-4,1.6-6.5,1.6c-3.6,0-6.4-1-8.6-3s-3.4-4.4-3.7-7.7
		c-0.4-5,1.5-8.9,5.6-11.5c3.3-2.1,7.7-3.4,13.5-3.8V249.3z M343.1,227.5v8.3c-0.6,0.7-0.9,1.8-1.2,3h-11.7c0.3-3.7,2.1-6.5,5-8.6
		C337.5,228.8,340,228,343.1,227.5z"/>
	<polygon id="XMLID_14_" class="st1" points="366.2,282.8 376,268.1 368.9,227.5 381,227.5 384.4,255.3 400.1,227.5 411.6,227.5 
		386.5,269.7 379.2,282.8 	"/>
	<path id="XMLID_17_" class="st1" d="M157.3,231.7c-1,0-1.9,0.1-3,0.4v-5.2c1.2-0.1,2.5-0.1,3.8-0.1c4.7,0,8.4,1.2,11.2,3.4
		c3,2.4,4.4,5.6,4.9,9.8c0.3,3.3,0,6.8-1,10.5c-0.9,3.7-2.2,7-4,9.6c-2.1,3.1-4.4,5.3-7.4,6.7c-2.1,1-4.6,1.6-7.5,1.9v-5.2
		c1.2-0.3,2.4-0.7,3.3-1.3c1.8-1,3.3-2.7,4.6-4.9c1.5-2.5,2.5-5.3,3.3-8.4c0.7-3.3,1-5.9,0.9-8.3c-0.3-3.1-1.2-5.3-2.7-6.7
		C162.2,232.4,160.1,231.7,157.3,231.7z M154.3,232.1c-1,0.3-2.2,0.7-3.3,1.3c-1.8,1.3-3.4,3.1-4.7,5.5c-1.3,2.2-2.4,4.9-3.1,8.1
		c-0.7,3.3-0.9,6.1-0.7,8.4c0.1,2.7,1.2,4.6,2.7,6.1c1.6,1.5,3.7,2.2,6.4,2.2c1,0,1.9-0.1,2.8-0.3v5.2c-1,0-2.2,0.1-3.4,0.1
		c-4.7,0-8.6-1.2-11.4-3.7c-3-2.4-4.6-5.8-4.9-10.1c-0.3-3.6,0-7.1,1.2-10.9c1-3.8,2.5-7.1,4.6-9.9c1.9-2.5,4.3-4.3,7.2-5.6
		c1.9-0.7,4.3-1.3,6.7-1.6V232.1z"/>
	<path id="XMLID_18_" class="st1" d="M182.5,254.9c-0.3,0.7-0.4,1.3-0.4,1.9c-0.1,0.6-0.1,1,0,1.5c0.1,1.6,0.7,2.8,1.9,3.6
		c1.2,0.9,2.8,1.2,5.2,1.2c3.1,0,5.5-0.6,7.2-1.8c1.8-1.3,2.5-3,2.4-4.9c0-1.2-0.6-2.2-1.6-3.1c-1-0.9-3.1-2.1-6.4-3.6
		c-4.1-1.9-7.1-3.7-8.7-5.3c-1.8-1.5-2.7-3.4-2.8-5.5c-0.3-3.6,1-6.4,3.8-8.7c3-2.2,7-3.4,12-3.4c4.6,0,8,0.7,10.2,2.1
		c2.4,1.3,3.6,3.3,3.8,6.1c0,0.4,0,0.9,0,1.5c0,0.4,0,1.2-0.1,2.2h-7.2c0-0.4,0-0.9,0-1.2c0-0.3,0-0.7,0-1c-0.1-1.5-0.7-2.7-1.9-3.4
		c-1-0.7-2.7-1.2-4.9-1.2c-2.5,0-4.4,0.6-5.8,1.6c-1.5,1-2.1,2.5-1.9,4.3c0.1,1,0.6,2.1,1.6,2.8c0.9,0.9,3.1,2.1,6.5,3.7
		c4.7,2.2,8,4.1,9.3,5.6c1.3,1.5,2.2,3.4,2.4,5.6c0.3,3.7-1.2,7-4.7,9.5c-3.4,2.5-8,3.8-13.6,3.8c-4.4,0-7.8-0.9-10.5-2.4
		c-2.5-1.6-3.8-3.8-4.1-6.8c-0.1-0.6-0.1-1.3,0-2.2c0.1-0.7,0.3-1.6,0.4-2.5H182.5z"/>
	<path id="XMLID_19_" class="st1" d="M231.1,268.2c-1.5,0.1-2.8,0.3-4,0.4c-1.2,0-2.4,0.1-3.4,0.1c-3,0-5.2-0.4-6.5-1.5
		c-1.5-0.9-2.2-2.5-2.4-4.7c-0.1-0.7,0-2.1,0.1-3.7c0.1-1.8,0.6-3.6,0.9-5.5l4.6-20.1h-7.4l1.3-5.2h7.2l2.1-9.2l7.8-1.9l-2.4,11.1
		h8.7l-1.2,5.2H228l-4.4,21c-0.4,1.6-0.7,2.8-0.7,3.6c-0.1,0.9-0.3,1.5-0.1,1.9c0,1.2,0.4,1.9,1.2,2.4c0.7,0.6,2.1,0.9,3.8,0.9
		c0.6,0,1.5-0.1,2.4-0.3c0.7,0,1.6-0.3,2.4-0.4L231.1,268.2z"/>
	<path id="XMLID_23_" class="st1" d="M256.7,243.3h10.1c0.1-1.3,0.3-2.4,0.3-3.1c0.1-0.7,0.1-1.3,0-1.9c-0.1-2.2-1-3.8-2.5-5
		c-1.6-1.2-3.7-1.9-6.4-1.9c-0.4,0-1,0.1-1.5,0.1v-4.9c0.6,0,1,0,1.6,0c5.2,0,9.2,1,11.8,3c2.5,1.9,4.1,5,4.4,9.3
		c0.1,1.5,0.1,3.1,0,4.7c0,1.6-0.3,3.4-0.7,5.2h-17.2V243.3z M256.7,268.5v-6.1c0.9-0.3,1.8-0.7,2.5-1.2c1.8-1.2,3.1-3,3.8-5.2h8.7
		c-1,4-3.3,7.1-6.7,9.3C262.8,267,260,268.1,256.7,268.5z M246.4,243.3h10.4v5.5H245c-0.4,1.2-0.6,2.2-0.7,3.4c-0.1,1-0.1,2.1-0.1,3
		c0.3,2.5,1.2,4.4,2.7,5.8c1.6,1.3,3.7,2.1,6.5,2.1c1.2,0,2.4-0.1,3.4-0.6v6.1c-1.3,0.1-2.8,0.3-4.3,0.3c-4.7,0-8.4-1.2-11.2-3.4
		c-2.7-2.2-4.3-5.5-4.6-9.6c-0.3-3.1,0-6.7,1-10.7c0.9-3.8,2.4-7.2,4-10.1c1.8-2.7,4.1-4.9,7-6.2c2.4-1.3,5-1.9,8.1-2.2v4.9
		c-2.4,0.3-4.4,1.2-6.1,3C248.6,236.4,247.1,239.3,246.4,243.3z"/>
</g>
</svg>
